<svg width="86" height="86" viewBox="0 0 86 86" fill="none" xmlns="http://www.w3.org/2000/svg">
<path d="M74.7868 0H10.6838C4.79169 0 0 4.79169 0 10.6838V74.7868C0 80.6789 4.79169 85.4706 10.6838 85.4706H74.7868C80.6789 85.4706 85.4706 80.6789 85.4706 74.7868V10.6838C85.4706 4.79169 80.6789 0 74.7868 0Z" fill="#F9F9F9"/>
<path fill-rule="evenodd" clip-rule="evenodd" d="M54.0372 37.8722H47.0324V32.33C47.0324 30.8003 48.2876 30.9444 49.8343 30.9444H52.6362V24.0165H47.0324C44.803 24.0165 42.665 24.8924 41.0886 26.4515C39.5122 28.0106 38.6266 30.1251 38.6266 32.33V37.8722H33.0227V44.8001H38.6266V60.0413H47.0324V44.8001H51.2353L54.0372 37.8722Z" fill="#646464"/>
</svg>
