<svg width="87" height="86" viewBox="0 0 87 86" fill="none" xmlns="http://www.w3.org/2000/svg">
<path d="M67.0575 0H19.9554C9.36026 0 0.771179 8.58908 0.771179 19.1843V66.2863C0.771179 76.8815 9.36026 85.4706 19.9554 85.4706H67.0575C77.6527 85.4706 86.2418 76.8815 86.2418 66.2863V19.1843C86.2418 8.58908 77.6527 0 67.0575 0Z" fill="#F9F9F9"/>
<path d="M48.75 43C48.75 43.9395 48.4714 44.8578 47.9495 45.639C47.4275 46.4201 46.6857 47.0289 45.8177 47.3884C44.9498 47.7479 43.9947 47.842 43.0733 47.6587C42.1519 47.4755 41.3055 47.0231 40.6412 46.3588C39.9769 45.6945 39.5245 44.8481 39.3413 43.9267C39.158 43.0053 39.2521 42.0502 39.6116 41.1823C39.9711 40.3143 40.5799 39.5725 41.361 39.0505C42.1422 38.5286 43.0605 38.25 44 38.25C45.2593 38.2514 46.4667 38.7523 47.3572 39.6428C48.2477 40.5333 48.7486 41.7407 48.75 43ZM58.8438 36.4688V49.5312C58.8413 51.7351 57.9647 53.848 56.4063 55.4063C54.848 56.9647 52.7351 57.8413 50.5312 57.8438H37.4688C35.2649 57.8413 33.152 56.9647 31.5937 55.4063C30.0353 53.848 29.1587 51.7351 29.1562 49.5312V36.4688C29.1587 34.2649 30.0353 32.152 31.5937 30.5937C33.152 29.0353 35.2649 28.1587 37.4688 28.1562H50.5312C52.7351 28.1587 54.848 29.0353 56.4063 30.5937C57.9647 32.152 58.8413 34.2649 58.8438 36.4688ZM51.125 43C51.125 41.5908 50.7071 40.2133 49.9242 39.0416C49.1413 37.8699 48.0285 36.9566 46.7266 36.4174C45.4247 35.8781 43.9921 35.737 42.61 36.0119C41.2279 36.2868 39.9583 36.9654 38.9619 37.9619C37.9654 38.9583 37.2868 40.2279 37.0119 41.61C36.737 42.9921 36.8781 44.4247 37.4174 45.7266C37.9566 47.0285 38.8699 48.1413 40.0416 48.9242C41.2133 49.7071 42.5908 50.125 44 50.125C45.889 50.1229 47.7 49.3715 49.0358 48.0358C50.3715 46.7 51.1229 44.889 51.125 43ZM53.5 35.2812C53.5 34.929 53.3955 34.5846 53.1998 34.2916C53.0041 33.9987 52.7259 33.7704 52.4004 33.6356C52.0749 33.5008 51.7168 33.4655 51.3712 33.5342C51.0257 33.603 50.7083 33.7726 50.4592 34.0217C50.2101 34.2708 50.0405 34.5882 49.9717 34.9337C49.903 35.2793 49.9383 35.6374 50.0731 35.9629C50.2079 36.2884 50.4362 36.5666 50.7291 36.7623C51.0221 36.958 51.3665 37.0625 51.7188 37.0625C52.1912 37.0625 52.6442 36.8748 52.9783 36.5408C53.3123 36.2067 53.5 35.7537 53.5 35.2812Z" fill="#646464"/>
</svg>
