<svg width="85" height="86" viewBox="0 0 85 86" fill="none" xmlns="http://www.w3.org/2000/svg">
<path d="M84.556 73.5997C84.556 76.748 83.326 79.7674 81.1365 81.9937C78.9471 84.2199 75.9776 85.4706 72.8813 85.4706H12.1728C9.0765 85.4706 6.107 84.2199 3.91756 81.9937C1.72813 79.7674 0.498123 76.748 0.498123 73.5997V11.8709C0.498123 8.72255 1.72813 5.70314 3.91756 3.47691C6.107 1.25068 9.0765 0 12.1728 0H72.8813C75.9776 0 78.9471 1.25068 81.1365 3.47691C83.326 5.70314 84.556 8.72255 84.556 11.8709V73.5997Z" fill="#F9F9F9"/>
<path d="M58.7628 33.0353C57.5692 33.5914 56.0577 34.1132 54.7031 34.2867C56.0807 33.4278 58.2661 31.6389 58.7628 30.0206C57.4759 30.8155 55.1483 31.6645 53.6301 31.9717C52.4176 30.6207 50.6882 30.0206 48.7721 30.0206C45.0913 30.0206 42.5243 33.2984 42.5243 37.1308V39.9748C37.1115 39.9748 31.834 35.6419 28.5498 31.4427C27.9559 32.5011 27.6442 33.7079 27.6472 34.9366C27.6472 37.5233 29.9084 40.1483 31.6987 41.3969C30.6066 41.3613 28.5389 40.4854 27.6391 39.9748V40.0559C27.6391 43.4219 29.8867 45.7071 32.9328 46.3441C32.3766 46.5048 31.6987 47.085 29.0897 47.085C29.9368 49.8366 34.1953 51.2914 37.1115 51.3511C34.83 53.2097 30.7623 54.1952 27.6391 54.1952C27.0991 54.1952 26.8068 54.2264 26.2859 54.1625C29.2331 56.1249 33.3496 57.0392 37.1115 57.0392C49.3675 57.0392 56.0563 47.2016 56.0563 38.0267C56.0563 37.7252 56.0469 36.7156 56.032 36.4198C57.3419 35.4499 57.8723 34.4346 58.7628 33.0353Z" fill="#646464"/>
</svg>
